<svg xmlns="http://www.w3.org/2000/svg" viewBox="-100 -100 400 200">
<text x="0" y="0" font-size="8" text-anchor="middle" >Random Sequence</text>
<text x="0" y="0" font-size="8" text-anchor="middle" >Random Sequence</text>
<text x="0" y="10" font-size="7" text-anchor="middle" >5000Bp</text>
<circle cx="0" cy="0" r="60" fill="none" stroke="black" stroke-width="2" ></circle>
<text x="13.96973600775705" y="-45.92217847482386" font-size="3" text-anchor="end" dominant-baseline="central" transform="rotate(-73.08 13.96973600775705,-45.92217847482386)" >AcyI:322</text>
<line x1 ="23.551785297668633" y1="-55.18435837529073" x2="20.804077012940628" y2="-48.74618323150681" stroke="black" stroke-width="0.1" ></line>
<line x1 ="20.804077012940628" y1="-48.74618323150681" x2="14.551808341413594" y2="-47.83560257794152" stroke="black" stroke-width="0.1" ></line>
<line x1 ="14.551808341413594" y1="-47.83560257794152" x2="13.96973600775705" y2="-45.92217847482386" stroke="black" stroke-width="0.1" ></line>
<text x="19.61515558734476" y="-43.80919619536813" font-size="3" text-anchor="end" dominant-baseline="central" transform="rotate(-65.88 19.61515558734476,-43.80919619536813)" >StyI:397</text>
<line x1 ="28.64056852911996" y1="-52.723029449461485" x2="25.299168867389298" y2="-46.57200934702431" stroke="black" stroke-width="0.1" ></line>
<line x1 ="25.299168867389298" y1="-46.57200934702431" x2="20.432453736817457" y2="-45.63457937017514" stroke="black" stroke-width="0.1" ></line>
<line x1 ="20.432453736817457" y1="-45.63457937017514" x2="19.61515558734476" y2="-43.80919619536813" stroke="black" stroke-width="0.1" ></line>
<text x="24.95123244579406" y="-41.00531672156617" font-size="3" text-anchor="end" dominant-baseline="central" transform="rotate(-58.67999999999999 24.95123244579406,-41.00531672156617)" >AvrII:397</text>
<line x1 ="28.64056852911996" y1="-52.723029449461485" x2="25.299168867389298" y2="-46.57200934702431" stroke="black" stroke-width="0.1" ></line>
<line x1 ="25.299168867389298" y1="-46.57200934702431" x2="25.99086713103548" y2="-42.71387158496476" stroke="black" stroke-width="0.1" ></line>
<line x1 ="25.99086713103548" y1="-42.71387158496476" x2="24.95123244579406" y2="-41.00531672156617" stroke="black" stroke-width="0.1" ></line>
<text x="29.893813463429403" y="-37.55475890767623" font-size="3" text-anchor="end" dominant-baseline="central" transform="rotate(-51.48 29.893813463429403,-37.55475890767623)" >TaqII:428</text>
<line x1 ="30.672185186686665" y1="-51.56759695655402" x2="27.09376358157322" y2="-45.551377311622716" stroke="black" stroke-width="0.1" ></line>
<line x1 ="27.09376358157322" y1="-45.551377311622716" x2="31.139389024405627" y2="-39.119540528829404" stroke="black" stroke-width="0.1" ></line>
<line x1 ="31.139389024405627" y1="-39.119540528829404" x2="29.893813463429403" y2="-37.55475890767623" stroke="black" stroke-width="0.1" ></line>
<text x="40.5922529801001" y="-25.61774771519844" font-size="3" text-anchor="end" dominant-baseline="central" transform="rotate(-32.25600000000001 40.5922529801001,-25.61774771519844)" >BtgZI:803</text>
<line x1 ="50.74031622512512" y1="-32.022184643998045" x2="44.820612665527186" y2="-28.286263102198276" stroke="black" stroke-width="0.1" ></line>
<line x1 ="44.820612665527186" y1="-28.286263102198276" x2="42.28359685427093" y2="-26.685153869998373" stroke="black" stroke-width="0.1" ></line>
<line x1 ="42.28359685427093" y1="-26.685153869998373" x2="40.5922529801001" y2="-25.61774771519844" stroke="black" stroke-width="0.1" ></line>
<text x="44.95439456391323" y="-16.82564736918043" font-size="3" text-anchor="end" dominant-baseline="central" transform="rotate(-20.519999999999996 44.95439456391323,-16.82564736918043)" >NmeAIII:966</text>
<line x1 ="56.19299320489154" y1="-21.032059211475538" x2="49.6371439976542" y2="-18.578318970136724" stroke="black" stroke-width="0.1" ></line>
<line x1 ="49.6371439976542" y1="-18.578318970136724" x2="46.82749433740962" y2="-17.526716009562946" stroke="black" stroke-width="0.1" ></line>
<line x1 ="46.82749433740962" y1="-17.526716009562946" x2="44.95439456391323" y2="-16.82564736918043" stroke="black" stroke-width="0.1" ></line>
<text x="40.52774042409672" y="25.71968615899185" font-size="3" text-anchor="end" dominant-baseline="central" transform="rotate(32.400000000000006 40.52774042409672,25.71968615899185)" >BtrI:1701</text>
<line x1 ="50.6596755301209" y1="32.149607698739814" x2="44.74938005160679" y2="28.398820133886833" stroke="black" stroke-width="0.1" ></line>
<line x1 ="44.74938005160679" y1="28.398820133886833" x2="42.21639627510075" y2="26.791339748949845" stroke="black" stroke-width="0.1" ></line>
<line x1 ="42.21639627510075" y1="26.791339748949845" x2="40.52774042409672" y2="25.71968615899185" stroke="black" stroke-width="0.1" ></line>
<text x="-9.467841985020604" y="47.05698639040415" font-size="3" text-anchor="end" dominant-baseline="central" transform="rotate(101.37599999999998 -9.467841985020604,47.05698639040415)" >AccI:2664</text>
<line x1 ="-12.204151147502312" y1="58.74571213943123" x2="-10.780333513627042" y2="51.89204572316425" stroke="black" stroke-width="0.1" ></line>
<line x1 ="-10.780333513627042" y1="51.89204572316425" x2="-9.86233540106313" y2="49.017694156670984" stroke="black" stroke-width="0.1" ></line>
<line x1 ="-9.86233540106313" y1="49.017694156670984" x2="-9.467841985020604" y2="47.05698639040415" stroke="black" stroke-width="0.1" ></line>
<text x="-15.290989489162207" y="45.499292746616746" font-size="3" text-anchor="end" dominant-baseline="central" transform="rotate(108.576 -15.290989489162207,45.499292746616746)" >NspI:2754</text>
<line x1 ="-18.756011314328457" y1="56.99308764733477" x2="-16.56780999432347" y2="50.34389408847905" stroke="black" stroke-width="0.1" ></line>
<line x1 ="-16.56780999432347" y1="50.34389408847905" x2="-15.928114051210631" y2="47.39509661105911" stroke="black" stroke-width="0.1" ></line>
<line x1 ="-15.928114051210631" y1="47.39509661105911" x2="-15.290989489162207" y2="45.499292746616746" stroke="black" stroke-width="0.1" ></line>
<text x="-34.23837024545628" y="33.6412544792113" font-size="3" text-anchor="end" dominant-baseline="central" transform="rotate(135.504 -34.23837024545628,33.6412544792113)" >Hpy99I:3133</text>
<line x1 ="-42.797962806820344" y1="42.05156809901412" x2="-37.80486714602464" y2="37.14555182079581" stroke="black" stroke-width="0.1" ></line>
<line x1 ="-37.80486714602464" y1="37.14555182079581" x2="-35.66496900568362" y2="35.042973415845104" stroke="black" stroke-width="0.1" ></line>
<line x1 ="-35.66496900568362" y1="35.042973415845104" x2="-34.23837024545628" y2="33.6412544792113" stroke="black" stroke-width="0.1" ></line>
<text x="-38.7261769183698" y="28.35988754010004" font-size="3" text-anchor="end" dominant-baseline="central" transform="rotate(143.784 -38.7261769183698,28.35988754010004)" >BsrI:3248</text>
<line x1 ="-48.407721147962256" y1="35.449859425125055" x2="-42.76015368069999" y2="31.314042492193796" stroke="black" stroke-width="0.1" ></line>
<line x1 ="-42.76015368069999" y1="31.314042492193796" x2="-40.33976762330188" y2="29.541549520937544" stroke="black" stroke-width="0.1" ></line>
<line x1 ="-40.33976762330188" y1="29.541549520937544" x2="-38.7261769183698" y2="28.35988754010004" stroke="black" stroke-width="0.1" ></line>
<text x="-43.78451248002834" y="19.670192344922366" font-size="3" text-anchor="end" dominant-baseline="central" transform="rotate(155.808 -43.78451248002834,19.670192344922366)" >BstEII:3415</text>
<line x1 ="-54.73064060003543" y1="24.587740431152955" x2="-48.34539919669796" y2="21.71917071418511" stroke="black" stroke-width="0.1" ></line>
<line x1 ="-48.34539919669796" y1="21.71917071418511" x2="-45.608867166696186" y2="20.489783692627466" stroke="black" stroke-width="0.1" ></line>
<line x1 ="-45.608867166696186" y1="20.489783692627466" x2="-43.78451248002834" y2="19.670192344922366" stroke="black" stroke-width="0.1" ></line>
<text x="-24.74480290032551" y="-41.13021674418994" font-size="3" text-anchor="end" dominant-baseline="central" transform="rotate(238.96799999999996 -24.74480290032551,-41.13021674418994)" >Esp3I:4614</text>
<line x1 ="-28.0424661365564" y1="-53.043567875663186" x2="-24.770845087291487" y2="-46.85515162350248" stroke="black" stroke-width="0.1" ></line>
<line x1 ="-24.770845087291487" y1="-46.85515162350248" x2="-25.77583635450574" y2="-42.84397577519785" stroke="black" stroke-width="0.1" ></line>
<line x1 ="-25.77583635450574" y1="-42.84397577519785" x2="-24.74480290032551" y2="-41.13021674418994" stroke="black" stroke-width="0.1" ></line>
<text x="-19.394699676792047" y="-43.90723886157091" font-size="3" text-anchor="end" dominant-baseline="central" transform="rotate(246.168 -19.394699676792047,-43.90723886157091)" >BsgI:4626</text>
<line x1 ="-27.23942998437282" y1="-53.460391451302065" x2="-24.06149648619599" y2="-47.22334578198349" stroke="black" stroke-width="0.1" ></line>
<line x1 ="-24.06149648619599" y1="-47.22334578198349" x2="-20.20281216332505" y2="-45.736707147469694" stroke="black" stroke-width="0.1" ></line>
<line x1 ="-20.20281216332505" y1="-45.736707147469694" x2="-19.394699676792047" y2="-43.90723886157091" stroke="black" stroke-width="0.1" ></line>
<text x="-1.1003546334642973" y="-73.99181859963042" font-size="3" text-anchor="start" dominant-baseline="central" transform="rotate(-90.852 -1.1003546334642973,-73.99181859963042)" >BciVI:13</text>
<line x1 ="0.9047443941622271" y1="-59.99317825870898" x2="1.0102979068144868" y2="-66.9923823888917" stroke="black" stroke-width="0.1" ></line>
<line x1 ="1.0102979068144868" y1="-66.9923823888917" x2="-1.0706153190463434" y2="-71.99203971855933" stroke="black" stroke-width="0.1" ></line>
<line x1 ="-1.0706153190463434" y1="-71.99203971855933" x2="-1.1003546334642973" y2="-73.99181859963042" stroke="black" stroke-width="0.1" ></line>
<text x="3.547801395842244" y="-73.91490448654899" font-size="3" text-anchor="start" dominant-baseline="central" transform="rotate(-87.252 3.547801395842244,-73.91490448654899)" >Eco31I:57</text>
<line x1 ="4.2188164623182285" y1="-59.851496118787814" x2="4.711011716255355" y2="-66.83417066597973" stroke="black" stroke-width="0.1" ></line>
<line x1 ="4.711011716255355" y1="-66.83417066597973" x2="3.4519148716302914" y2="-71.9172043652909" stroke="black" stroke-width="0.1" ></line>
<line x1 ="3.4519148716302914" y1="-71.9172043652909" x2="3.547801395842244" y2="-73.91490448654899" stroke="black" stroke-width="0.1" ></line>
<text x="8.181955873875678" y="-73.5462820139669" font-size="3" text-anchor="start" dominant-baseline="central" transform="rotate(-83.652 8.181955873875678,-73.5462820139669)" >BsmAI:57</text>
<line x1 ="4.2188164623182285" y1="-59.851496118787814" x2="4.711011716255355" y2="-66.83417066597973" stroke="black" stroke-width="0.1" ></line>
<line x1 ="4.711011716255355" y1="-66.83417066597973" x2="7.960821931338497" y2="-71.55854466223806" stroke="black" stroke-width="0.1" ></line>
<line x1 ="7.960821931338497" y1="-71.55854466223806" x2="8.181955873875678" y2="-73.5462820139669" stroke="black" stroke-width="0.1" ></line>
<text x="12.783819910054998" y="-72.88740596637585" font-size="3" text-anchor="start" dominant-baseline="central" transform="rotate(-80.052 12.783819910054998,-72.88740596637585)" >Eco31I:168</text>
<line x1 ="12.499283884476132" y1="-58.68362550469488" x2="13.957533670998348" y2="-65.53004848024261" stroke="black" stroke-width="0.1" ></line>
<line x1 ="13.957533670998348" y1="-65.53004848024261" x2="12.438311263837296" y2="-70.91747607539271" stroke="black" stroke-width="0.1" ></line>
<line x1 ="12.438311263837296" y1="-70.91747607539271" x2="12.783819910054998" y2="-72.88740596637585" stroke="black" stroke-width="0.1" ></line>
<text x="17.33523204942111" y="-71.94087662652383" font-size="3" text-anchor="start" dominant-baseline="central" transform="rotate(-76.452 17.33523204942111,-71.94087662652383)" >BsmAI:169</text>
<line x1 ="12.573018014738432" y1="-58.667872110730784" x2="14.039870116457916" y2="-65.51245719031604" stroke="black" stroke-width="0.1" ></line>
<line x1 ="14.039870116457916" y1="-65.51245719031604" x2="16.86671226430162" y2="-69.99652860959075" stroke="black" stroke-width="0.1" ></line>
<line x1 ="16.86671226430162" y1="-69.99652860959075" x2="17.33523204942111" y2="-71.94087662652383" stroke="black" stroke-width="0.1" ></line>
<text x="21.81822994760234" y="-70.71042951328714" font-size="3" text-anchor="start" dominant-baseline="central" transform="rotate(-72.852 21.81822994760234,-70.71042951328714)" >PcsI:221</text>
<line x1 ="16.37711613103951" y1="-57.72166029516516" x2="18.287779679660787" y2="-64.45585399626776" stroke="black" stroke-width="0.1" ></line>
<line x1 ="18.287779679660787" y1="-64.45585399626776" x2="21.228548057126602" y2="-68.79933682373883" stroke="black" stroke-width="0.1" ></line>
<line x1 ="21.228548057126602" y1="-68.79933682373883" x2="21.81822994760234" y2="-70.71042951328714" stroke="black" stroke-width="0.1" ></line>
<text x="31.25502157263383" y="-67.07550690448932" font-size="3" text-anchor="start" dominant-baseline="central" transform="rotate(-65.01599999999999 31.25502157263383,-67.07550690448932)" >AgeI:348</text>
<line x1 ="25.34190938321662" y1="-54.385546138775126" x2="28.298465477925227" y2="-60.73052652163222" stroke="black" stroke-width="0.1" ></line>
<line x1 ="28.298465477925227" y1="-60.73052652163222" x2="30.410291259859942" y2="-65.26265536653014" stroke="black" stroke-width="0.1" ></line>
<line x1 ="30.410291259859942" y1="-65.26265536653014" x2="31.25502157263383" y2="-67.07550690448932" stroke="black" stroke-width="0.1" ></line>
<text x="35.40505285331572" y="-64.98062967110984" font-size="3" text-anchor="start" dominant-baseline="central" transform="rotate(-61.416 35.40505285331572,-64.98062967110984)" >MaeI:398</text>
<line x1 ="28.70679961079653" y1="-52.6869970306296" x2="32.05592623205613" y2="-58.83381335086972" stroke="black" stroke-width="0.1" ></line>
<line x1 ="32.05592623205613" y1="-58.83381335086972" x2="34.44815953295584" y2="-63.22439643675551" stroke="black" stroke-width="0.1" ></line>
<line x1 ="34.44815953295584" y1="-63.22439643675551" x2="35.40505285331572" y2="-64.98062967110984" stroke="black" stroke-width="0.1" ></line>
<text x="49.54198524771521" y="-54.96900670118724" font-size="3" text-anchor="start" dominant-baseline="central" transform="rotate(-47.97257142857143 49.54198524771521,-54.96900670118724)" >Eco57I:622</text>
<line x1 ="42.21261341255579" y1="-42.63912837854587" x2="47.1374183106873" y2="-47.61369335604289" stroke="black" stroke-width="0.1" ></line>
<line x1 ="47.1374183106873" y1="-47.61369335604289" x2="48.20301267345264" y2="-53.483357871425426" stroke="black" stroke-width="0.1" ></line>
<line x1 ="48.20301267345264" y1="-53.483357871425426" x2="49.54198524771521" y2="-54.96900670118724" stroke="black" stroke-width="0.1" ></line>
<text x="52.89575794539677" y="-51.74977093072002" font-size="3" text-anchor="start" dominant-baseline="central" transform="rotate(-44.372571428571426 52.89575794539677,-51.74977093072002)" >FokI:673</text>
<line x1 ="44.85675949014641" y1="-39.84810068300822" x2="50.090048097330154" y2="-44.49704576269251" stroke="black" stroke-width="0.1" ></line>
<line x1 ="50.090048097330154" y1="-44.49704576269251" x2="51.46614286579145" y2="-50.35112847313299" stroke="black" stroke-width="0.1" ></line>
<line x1 ="51.46614286579145" y1="-50.35112847313299" x2="52.89575794539677" y2="-51.74977093072002" stroke="black" stroke-width="0.1" ></line>
<text x="56.04077525224095" y="-48.32630245661071" font-size="3" text-anchor="start" dominant-baseline="central" transform="rotate(-40.77257142857143 56.04077525224095,-48.32630245661071)" >AsuII:691</text>
<line x1 ="45.74655066068687" y1="-38.82335769416666" x2="51.08364823776701" y2="-43.35274942515277" stroke="black" stroke-width="0.1" ></line>
<line x1 ="51.08364823776701" y1="-43.35274942515277" x2="54.526159704883085" y2="-47.02018617399961" stroke="black" stroke-width="0.1" ></line>
<line x1 ="54.526159704883085" y1="-47.02018617399961" x2="56.04077525224095" y2="-48.32630245661071" stroke="black" stroke-width="0.1" ></line>
<text x="58.9646252217594" y="-44.71211214489263" font-size="3" text-anchor="start" dominant-baseline="central" transform="rotate(-37.17257142857143 58.9646252217594,-44.71211214489263)" >XmnI:694</text>
<line x1 ="45.89258584451306" y1="-38.65062178677078" x2="51.246720859706244" y2="-43.15986099522737" stroke="black" stroke-width="0.1" ></line>
<line x1 ="51.246720859706244" y1="-43.15986099522737" x2="57.37098670225239" y2="-43.50367668151715" stroke="black" stroke-width="0.1" ></line>
<line x1 ="57.37098670225239" y1="-43.50367668151715" x2="58.9646252217594" y2="-44.71211214489263" stroke="black" stroke-width="0.1" ></line>
<text x="61.655768753902414" y="-40.92146355355964" font-size="3" text-anchor="start" dominant-baseline="central" transform="rotate(-33.57257142857142 61.655768753902414,-40.92146355355964)" >EcoRI:796</text>
<line x1 ="50.45667493789014" y1="-32.46727512761255" x2="56.343287013977324" y2="-36.255123892500684" stroke="black" stroke-width="0.1" ></line>
<line x1 ="56.343287013977324" y1="-36.255123892500684" x2="59.989396625418564" y2="-39.815478052112084" stroke="black" stroke-width="0.1" ></line>
<line x1 ="59.989396625418564" y1="-39.815478052112084" x2="61.655768753902414" y2="-40.92146355355964" stroke="black" stroke-width="0.1" ></line>
<text x="64.10358513461514" y="-36.96931664081915" font-size="3" text-anchor="start" dominant-baseline="central" transform="rotate(-29.972571428571428 64.10358513461514,-36.96931664081915)" >ApoI:796</text>
<line x1 ="50.45667493789014" y1="-32.46727512761255" x2="56.343287013977324" y2="-36.255123892500684" stroke="black" stroke-width="0.1" ></line>
<line x1 ="56.343287013977324" y1="-36.255123892500684" x2="62.37105580665258" y2="-35.970145920797016" stroke="black" stroke-width="0.1" ></line>
<line x1 ="62.37105580665258" y1="-35.970145920797016" x2="64.10358513461514" y2="-36.96931664081915" stroke="black" stroke-width="0.1" ></line>
<text x="66.29841395094387" y="-32.871268724971536" font-size="3" text-anchor="start" dominant-baseline="central" transform="rotate(-26.372571428571426 66.29841395094387,-32.871268724971536)" >FokI:871</text>
<line x1 ="53.28818692881267" y1="-27.574791637289277" x2="59.50514207050748" y2="-30.791850661639693" stroke="black" stroke-width="0.1" ></line>
<line x1 ="59.50514207050748" y1="-30.791850661639693" x2="64.50656492524267" y2="-31.982856056729062" stroke="black" stroke-width="0.1" ></line>
<line x1 ="64.50656492524267" y1="-31.982856056729062" x2="66.29841395094387" y2="-32.871268724971536" stroke="black" stroke-width="0.1" ></line>
<text x="68.70027430599743" y="-27.50040563847576" font-size="3" text-anchor="start" dominant-baseline="central" transform="rotate(-21.816000000000003 68.70027430599743,-27.50040563847576)" >AflIII:948</text>
<line x1 ="55.70292511297089" y1="-22.29762619335872" x2="62.20159970948416" y2="-24.89901591591724" stroke="black" stroke-width="0.1" ></line>
<line x1 ="62.20159970948416" y1="-24.89901591591724" x2="66.84351013556507" y2="-26.757151432030465" stroke="black" stroke-width="0.1" ></line>
<line x1 ="66.84351013556507" y1="-26.757151432030465" x2="68.70027430599743" y2="-27.50040563847576" stroke="black" stroke-width="0.1" ></line>
<text x="71.01833741309093" y="-20.794127802828584" font-size="3" text-anchor="start" dominant-baseline="central" transform="rotate(-16.320000000000007 71.01833741309093,-20.794127802828584)" >AvaI:1025</text>
<line x1 ="57.59654021928911" y1="-16.81185756446362" x2="64.31613657820617" y2="-18.773240946984373" stroke="black" stroke-width="0.1" ></line>
<line x1 ="64.31613657820617" y1="-18.773240946984373" x2="69.0989228884128" y2="-20.23212434869808" stroke="black" stroke-width="0.1" ></line>
<line x1 ="69.0989228884128" y1="-20.23212434869808" x2="71.01833741309093" y2="-20.794127802828584" stroke="black" stroke-width="0.1" ></line>
<text x="72.18387303470081" y="-16.293817039300315" font-size="3" text-anchor="start" dominant-baseline="central" transform="rotate(-12.719999999999999 72.18387303470081,-16.293817039300315)" >OliI:1099</text>
<line x1 ="58.90879249712079" y1="-11.390968638845646" x2="65.78148495511822" y2="-12.719914980044305" stroke="black" stroke-width="0.1" ></line>
<line x1 ="65.78148495511822" y1="-12.719914980044305" x2="70.23295754727646" y2="-15.853443605805712" stroke="black" stroke-width="0.1" ></line>
<line x1 ="70.23295754727646" y1="-15.853443605805712" x2="72.18387303470081" y2="-16.293817039300315" stroke="black" stroke-width="0.1" ></line>
<text x="73.06453188711743" y="-11.729202023854873" font-size="3" text-anchor="start" dominant-baseline="central" transform="rotate(-9.120000000000005 73.06453188711743,-11.729202023854873)" >MslI:1099</text>
<line x1 ="58.90879249712079" y1="-11.390968638845646" x2="65.78148495511822" y2="-12.719914980044305" stroke="black" stroke-width="0.1" ></line>
<line x1 ="65.78148495511822" y1="-12.719914980044305" x2="71.08981480908722" y2="-11.412196563750687" stroke="black" stroke-width="0.1" ></line>
<line x1 ="71.08981480908722" y1="-11.412196563750687" x2="73.06453188711743" y2="-11.729202023854873" stroke="black" stroke-width="0.1" ></line>
<text x="69.83067740569571" y="24.488292979741523" font-size="3" text-anchor="start" dominant-baseline="central" transform="rotate(19.324800000000025 69.83067740569571,24.488292979741523)" >EciI:1540</text>
<line x1 ="56.08656509989173" y1="21.31424911404593" x2="62.629997694879094" y2="23.80091151068462" stroke="black" stroke-width="0.1" ></line>
<line x1 ="62.629997694879094" y1="23.80091151068462" x2="67.94336180013637" y2="23.82644722353229" stroke="black" stroke-width="0.1" ></line>
<line x1 ="67.94336180013637" y1="23.82644722353229" x2="69.83067740569571" y2="24.488292979741523" stroke="black" stroke-width="0.1" ></line>
<text x="68.1552498765525" y="28.824675440751967" font-size="3" text-anchor="start" dominant-baseline="central" transform="rotate(22.92480000000002 68.1552498765525,28.824675440751967)" >MaeI:1616</text>
<line x1 ="53.798462207114156" y1="26.565493862334083" x2="60.07494946461081" y2="29.664801479606393" stroke="black" stroke-width="0.1" ></line>
<line x1 ="60.07494946461081" y1="29.664801479606393" x2="66.31321609610514" y2="28.04563015856948" stroke="black" stroke-width="0.1" ></line>
<line x1 ="66.31321609610514" y1="28.04563015856948" x2="68.1552498765525" y2="28.824675440751967" stroke="black" stroke-width="0.1" ></line>
<text x="66.21084471331841" y="33.047300076539344" font-size="3" text-anchor="start" dominant-baseline="central" transform="rotate(26.524800000000027 66.21084471331841,33.047300076539344)" >OliI:1631</text>
<line x1 ="53.28818692881268" y1="27.57479163728927" x2="59.50514207050749" y2="30.791850661639682" stroke="black" stroke-width="0.1" ></line>
<line x1 ="59.50514207050749" y1="30.791850661639682" x2="64.42136242376925" y2="32.15412980420044" stroke="black" stroke-width="0.1" ></line>
<line x1 ="64.42136242376925" y1="32.15412980420044" x2="66.21084471331841" y2="33.047300076539344" stroke="black" stroke-width="0.1" ></line>
<text x="64.00513559485846" y="37.13950211679989" font-size="3" text-anchor="start" dominant-baseline="central" transform="rotate(30.124800000000036 64.00513559485846,37.13950211679989)" >MslI:1631</text>
<line x1 ="53.28818692881268" y1="27.57479163728927" x2="59.50514207050749" y2="30.791850661639682" stroke="black" stroke-width="0.1" ></line>
<line x1 ="59.50514207050749" y1="30.791850661639682" x2="62.275267065267684" y2="36.13573178931881" stroke="black" stroke-width="0.1" ></line>
<line x1 ="62.275267065267684" y1="36.13573178931881" x2="64.00513559485846" y2="37.13950211679989" stroke="black" stroke-width="0.1" ></line>
<text x="61.54682744737062" y="41.085131509629946" font-size="3" text-anchor="start" dominant-baseline="central" transform="rotate(33.724800000000016 61.54682744737062,41.085131509629946)" >SfaNI:1679</text>
<line x1 ="51.52901244590033" y1="30.736962705352802" x2="57.5407305645887" y2="34.32294168764396" stroke="black" stroke-width="0.1" ></line>
<line x1 ="57.5407305645887" y1="34.32294168764396" x2="59.883399678522764" y2="39.97472254991021" stroke="black" stroke-width="0.1" ></line>
<line x1 ="59.883399678522764" y1="39.97472254991021" x2="61.54682744737062" y2="41.085131509629946" stroke="black" stroke-width="0.1" ></line>
<text x="52.58825833353991" y="52.06222320881879" font-size="3" text-anchor="start" dominant-baseline="central" transform="rotate(44.71199999999999 52.58825833353991,52.06222320881879)" >XmnI:1872</text>
<line x1 ="42.63912837854588" y1="42.212613412555775" x2="47.613693356042894" y2="47.13741831068729" stroke="black" stroke-width="0.1" ></line>
<line x1 ="47.613693356042894" y1="47.13741831068729" x2="51.16695405425505" y2="50.655136095066936" stroke="black" stroke-width="0.1" ></line>
<line x1 ="51.16695405425505" y1="50.655136095066936" x2="52.58825833353991" y2="52.06222320881879" stroke="black" stroke-width="0.1" ></line>
<text x="35.568254997647784" y="64.89144193514507" font-size="3" text-anchor="start" dominant-baseline="central" transform="rotate(61.27200000000002 35.568254997647784,64.89144193514507)" >Eco57I:2102</text>
<line x1 ="28.83912567376847" y1="52.61468265011762" x2="32.20369033570813" y2="58.75306229263134" stroke="black" stroke-width="0.1" ></line>
<line x1 ="32.20369033570813" y1="58.75306229263134" x2="34.60695080852217" y2="63.137619180141144" stroke="black" stroke-width="0.1" ></line>
<line x1 ="34.60695080852217" y1="63.137619180141144" x2="35.568254997647784" y2="64.89144193514507" stroke="black" stroke-width="0.1" ></line>
<text x="23.88189248549095" y="70.04038271819658" font-size="3" text-anchor="start" dominant-baseline="central" transform="rotate(71.172 23.88189248549095,70.04038271819658)" >EciI:2254</text>
<line x1 ="18.325764501735186" y1="57.13288331098775" x2="20.463770360270956" y2="63.798386363936324" stroke="black" stroke-width="0.1" ></line>
<line x1 ="20.463770360270956" y1="63.798386363936324" x2="23.236435931829032" y2="68.14739940148857" stroke="black" stroke-width="0.1" ></line>
<line x1 ="23.236435931829032" y1="68.14739940148857" x2="23.88189248549095" y2="70.04038271819658" stroke="black" stroke-width="0.1" ></line>
<text x="19.436895007062745" y="71.40173045861297" font-size="3" text-anchor="start" dominant-baseline="central" transform="rotate(74.77199999999999 19.436895007062745,71.40173045861297)" >AsuII:2275</text>
<line x1 ="16.811857564463622" y1="57.5965402192891" x2="18.773240946984377" y2="64.31613657820617" stroke="black" stroke-width="0.1" ></line>
<line x1 ="18.773240946984377" y1="64.31613657820617" x2="18.91157352038537" y2="69.47195395973154" stroke="black" stroke-width="0.1" ></line>
<line x1 ="18.91157352038537" y1="69.47195395973154" x2="19.436895007062745" y2="71.40173045861297" stroke="black" stroke-width="0.1" ></line>
<text x="14.292248470742493" y="72.60669138344316" font-size="3" text-anchor="start" dominant-baseline="central" transform="rotate(78.864 14.292248470742493,72.60669138344316)" >EcoRI:2392</text>
<line x1 ="8.192731900915533" y1="59.438027760010016" x2="9.148550622689012" y2="66.37246433201118" stroke="black" stroke-width="0.1" ></line>
<line x1 ="9.148550622689012" y1="66.37246433201118" x2="13.905971485046749" y2="70.64434837307982" stroke="black" stroke-width="0.1" ></line>
<line x1 ="13.905971485046749" y1="70.64434837307982" x2="14.292248470742493" y2="72.60669138344316" stroke="black" stroke-width="0.1" ></line>
<text x="9.705034109868174" y="73.36083637013891" font-size="3" text-anchor="start" dominant-baseline="central" transform="rotate(82.464 9.705034109868174,73.36083637013891)" >ApoI:2392</text>
<line x1 ="8.192731900915533" y1="59.438027760010016" x2="9.148550622689012" y2="66.37246433201118" stroke="black" stroke-width="0.1" ></line>
<line x1 ="9.148550622689012" y1="66.37246433201118" x2="9.442735890682549" y2="71.37811106283786" stroke="black" stroke-width="0.1" ></line>
<line x1 ="9.442735890682549" y1="71.37811106283786" x2="9.705034109868174" y2="73.36083637013891" stroke="black" stroke-width="0.1" ></line>
<text x="5.079518413170541" y="73.82545965105982" font-size="3" text-anchor="start" dominant-baseline="central" transform="rotate(86.06400000000002 5.079518413170541,73.82545965105982)" >PcsI:2405</text>
<line x1 ="7.2206855285826945" y1="59.56392952532024" x2="8.063098840250674" y2="66.5130546366076" stroke="black" stroke-width="0.1" ></line>
<line x1 ="8.063098840250674" y1="66.5130546366076" x2="4.942234131733499" y2="71.83017695778793" stroke="black" stroke-width="0.1" ></line>
<line x1 ="4.942234131733499" y1="71.83017695778793" x2="5.079518413170541" y2="73.82545965105982" stroke="black" stroke-width="0.1" ></line>
<text x="-14.208602102592438" y="72.62310669676839" font-size="3" text-anchor="start" dominant-baseline="central" transform="rotate(101.07 -14.208602102592438,72.62310669676839)" >SgrAI:2697</text>
<line x1 ="-14.62908815768031" y1="58.18925828428146" x2="-16.335815109409676" y2="64.97800508411429" stroke="black" stroke-width="0.1" ></line>
<line x1 ="-16.335815109409676" y1="64.97800508411429" x2="-13.824585829549399" y2="70.66032002928816" stroke="black" stroke-width="0.1" ></line>
<line x1 ="-13.824585829549399" y1="70.66032002928816" x2="-14.208602102592438" y2="72.62310669676839" stroke="black" stroke-width="0.1" ></line>
<text x="-18.740607271312243" y="71.58763607706598" font-size="3" text-anchor="start" dominant-baseline="central" transform="rotate(104.66999999999999 -18.740607271312243,71.58763607706598)" >AgeI:2698</text>
<line x1 ="-14.702199366309141" y1="58.170828890375105" x2="-16.417455959045206" y2="64.9574255942522" stroke="black" stroke-width="0.1" ></line>
<line x1 ="-16.417455959045206" y1="64.9574255942522" x2="-18.234104372087586" y2="69.65283510201014" stroke="black" stroke-width="0.1" ></line>
<line x1 ="-18.234104372087586" y1="69.65283510201014" x2="-18.740607271312243" y2="71.58763607706598" stroke="black" stroke-width="0.1" ></line>
<text x="-23.198651824901233" y="70.26964176304733" font-size="3" text-anchor="start" dominant-baseline="central" transform="rotate(108.26999999999998 -23.198651824901233,70.26964176304733)" >AflIII:2754</text>
<line x1 ="-18.756011314328457" y1="56.99308764733477" x2="-20.944212634333443" y2="63.64228120619049" stroke="black" stroke-width="0.1" ></line>
<line x1 ="-20.944212634333443" y1="63.64228120619049" x2="-22.571661235039038" y2="68.37046225593795" stroke="black" stroke-width="0.1" ></line>
<line x1 ="-22.571661235039038" y1="68.37046225593795" x2="-23.198651824901233" y2="70.26964176304733" stroke="black" stroke-width="0.1" ></line>
<text x="-27.565141898193215" y="68.67432527613556" font-size="3" text-anchor="start" dominant-baseline="central" transform="rotate(111.86999999999998 -27.565141898193215,68.67432527613556)" >MmeI:2770</text>
<line x1 ="-19.898057111708045" y1="56.604481476109335" x2="-22.219497108073984" y2="63.20833764832209" stroke="black" stroke-width="0.1" ></line>
<line x1 ="-22.219497108073984" y1="63.20833764832209" x2="-26.82013806310691" y2="66.81826243083461" stroke="black" stroke-width="0.1" ></line>
<line x1 ="-26.82013806310691" y1="66.81826243083461" x2="-27.565141898193215" y2="68.67432527613556" stroke="black" stroke-width="0.1" ></line>
<text x="-46.23166088067339" y="57.780909755856335" font-size="3" text-anchor="start" dominant-baseline="central" transform="rotate(128.66400000000002 -46.23166088067339,57.780909755856335)" >SapI:3038</text>
<line x1 ="-37.48513044378923" y1="46.849386288532166" x2="-41.85839566223131" y2="52.31514802219425" stroke="black" stroke-width="0.1" ></line>
<line x1 ="-41.85839566223131" y1="52.31514802219425" x2="-44.98215653254708" y2="56.219263546238594" stroke="black" stroke-width="0.1" ></line>
<line x1 ="-44.98215653254708" y1="56.219263546238594" x2="-46.23166088067339" y2="57.780909755856335" stroke="black" stroke-width="0.1" ></line>
<text x="-58.300071034717455" y="45.57523140201154" font-size="3" text-anchor="start" dominant-baseline="central" transform="rotate(141.98399999999998 -58.300071034717455,45.57523140201154)" >SfaNI:3223</text>
<line x1 ="-47.27032786598712" y1="36.9528903259553" x2="-52.78519945035229" y2="41.26406086398342" stroke="black" stroke-width="0.1" ></line>
<line x1 ="-52.78519945035229" y1="41.26406086398342" x2="-56.724393439184546" y2="44.34346839114636" stroke="black" stroke-width="0.1" ></line>
<line x1 ="-56.724393439184546" y1="44.34346839114636" x2="-58.300071034717455" y2="45.57523140201154" stroke="black" stroke-width="0.1" ></line>
<text x="-64.91377731833813" y="35.52747548398578" font-size="3" text-anchor="start" dominant-baseline="central" transform="rotate(151.308 -64.91377731833813,35.52747548398578)" >PsrI:3374</text>
<line x1 ="-53.39176252642864" y1="27.373704431834764" x2="-59.62080148784531" y2="30.567303282215487" stroke="black" stroke-width="0.1" ></line>
<line x1 ="-59.62080148784531" y1="30.567303282215487" x2="-63.15935090432899" y2="34.56727344387806" stroke="black" stroke-width="0.1" ></line>
<line x1 ="-63.15935090432899" y1="34.56727344387806" x2="-64.91377731833813" y2="35.52747548398578" stroke="black" stroke-width="0.1" ></line>
<text x="-67.01647345014676" y="31.38140032416931" font-size="3" text-anchor="start" dominant-baseline="central" transform="rotate(154.90800000000002 -67.01647345014676,31.38140032416931)" >PsrI:3381</text>
<line x1 ="-53.630485449075834" y1="26.902992965401918" x2="-59.88737541813468" y2="30.04167547803214" stroke="black" stroke-width="0.1" ></line>
<line x1 ="-59.88737541813468" y1="30.04167547803214" x2="-65.20521741095361" y2="30.53325436946203" stroke="black" stroke-width="0.1" ></line>
<line x1 ="-65.20521741095361" y1="30.53325436946203" x2="-67.01647345014676" y2="31.38140032416931" stroke="black" stroke-width="0.1" ></line>
<text x="-73.332064404165" y="9.920097289008652" font-size="3" text-anchor="start" dominant-baseline="central" transform="rotate(172.296 -73.332064404165,9.920097289008652)" >BciVI:3644</text>
<line x1 ="-59.45843059797162" y1="8.04332212622323" x2="-66.39524750106831" y2="8.981709707615941" stroke="black" stroke-width="0.1" ></line>
<line x1 ="-66.39524750106831" y1="8.981709707615941" x2="-71.35011671756594" y2="9.651986551467877" stroke="black" stroke-width="0.1" ></line>
<line x1 ="-71.35011671756594" y1="9.651986551467877" x2="-73.332064404165" y2="9.920097289008652" stroke="black" stroke-width="0.1" ></line>
<text x="-73.99396089314268" y="0.9453842309194997" font-size="3" text-anchor="start" dominant-baseline="central" transform="rotate(179.26800000000003 -73.99396089314268,0.9453842309194997)" >MmeI:3754</text>
<line x1 ="-59.999573633594835" y1="-0.22619413527037038" x2="-66.99952389084757" y2="-0.2525834510519136" stroke="black" stroke-width="0.1" ></line>
<line x1 ="-66.99952389084757" y1="-0.2525834510519136" x2="-71.99412411224694" y2="0.9198333057595133" stroke="black" stroke-width="0.1" ></line>
<line x1 ="-71.99412411224694" y1="0.9198333057595133" x2="-73.99396089314268" y2="0.9453842309194997" stroke="black" stroke-width="0.1" ></line>
<text x="-73.90731188064692" y="-3.7026005154198334" font-size="3" text-anchor="start" dominant-baseline="central" transform="rotate(182.868 -73.90731188064692,-3.7026005154198334)" >EcoRI:3862</text>
<line x1 ="-59.417249479161" y1="-8.3420899258604" x2="-66.34926191839645" y2="-9.315333750544113" stroke="black" stroke-width="0.1" ></line>
<line x1 ="-66.34926191839645" y1="-9.315333750544113" x2="-71.90981696495375" y2="-3.6025302312192977" stroke="black" stroke-width="0.1" ></line>
<line x1 ="-71.90981696495375" y1="-3.6025302312192977" x2="-73.90731188064692" y2="-3.7026005154198334" stroke="black" stroke-width="0.1" ></line>
<text x="-73.52898447319726" y="-8.335972789082078" font-size="3" text-anchor="start" dominant-baseline="central" transform="rotate(186.46800000000002 -73.52898447319726,-8.335972789082078)" >ApoI:3862</text>
<line x1 ="-59.417249479161" y1="-8.3420899258604" x2="-66.34926191839645" y2="-9.315333750544113" stroke="black" stroke-width="0.1" ></line>
<line x1 ="-66.34926191839645" y1="-9.315333750544113" x2="-71.5417146225703" y2="-8.110676227214993" stroke="black" stroke-width="0.1" ></line>
<line x1 ="-71.5417146225703" y1="-8.110676227214993" x2="-73.52898447319726" y2="-8.335972789082078" stroke="black" stroke-width="0.1" ></line>
<text x="-72.86047175622954" y="-12.93644678648959" font-size="3" text-anchor="start" dominant-baseline="central" transform="rotate(190.06799999999998 -72.86047175622954,-12.93644678648959)" >Eco57I:3886</text>
<line x1 ="-59.138675708939886" y1="-10.130006682764026" x2="-66.03818787498287" y2="-11.311840795753163" stroke="black" stroke-width="0.1" ></line>
<line x1 ="-66.03818787498287" y1="-11.311840795753163" x2="-70.89126981687198" y2="-12.586813089557438" stroke="black" stroke-width="0.1" ></line>
<line x1 ="-70.89126981687198" y1="-12.586813089557438" x2="-72.86047175622954" y2="-12.93644678648959" stroke="black" stroke-width="0.1" ></line>
<text x="-71.90441204402326" y="-17.485866538531123" font-size="3" text-anchor="start" dominant-baseline="central" transform="rotate(193.668 -71.90441204402326,-17.485866538531123)" >SgrAI:3915</text>
<line x1 ="-58.73032957108321" y1="-12.277963531137758" x2="-65.58220135437625" y2="-13.710392609770494" stroke="black" stroke-width="0.1" ></line>
<line x1 ="-65.58220135437625" y1="-13.710392609770494" x2="-69.96104955634696" y2="-17.013275551003254" stroke="black" stroke-width="0.1" ></line>
<line x1 ="-69.96104955634696" y1="-17.013275551003254" x2="-71.90441204402326" y2="-17.485866538531123" stroke="black" stroke-width="0.1" ></line>
<text x="-70.66457846748033" y="-21.96627756387768" font-size="3" text-anchor="start" dominant-baseline="central" transform="rotate(197.26800000000003 -70.66457846748033,-21.96627756387768)" >AgeI:3916</text>
<line x1 ="-58.71485425952832" y1="-12.351756526192894" x2="-65.56492058980663" y2="-13.792794787582064" stroke="black" stroke-width="0.1" ></line>
<line x1 ="-65.56492058980663" y1="-13.792794787582064" x2="-68.75472499538627" y2="-21.37259438647558" stroke="black" stroke-width="0.1" ></line>
<line x1 ="-68.75472499538627" y1="-21.37259438647558" x2="-70.66457846748033" y2="-21.96627756387768" stroke="black" stroke-width="0.1" ></line>
<text x="-68.53490077659808" y="-27.909987021527893" font-size="3" text-anchor="start" dominant-baseline="central" transform="rotate(202.15799999999996 -68.53490077659808,-27.909987021527893)" >SfaNI:4097</text>
<line x1 ="-54.41734877183182" y1="-25.27354649915232" x2="-60.76603946187886" y2="-28.222126924053423" stroke="black" stroke-width="0.1" ></line>
<line x1 ="-60.76603946187886" y1="-28.222126924053423" x2="-66.68260616101435" y2="-27.155663047973086" stroke="black" stroke-width="0.1" ></line>
<line x1 ="-66.68260616101435" y1="-27.155663047973086" x2="-68.53490077659808" y2="-27.909987021527893" stroke="black" stroke-width="0.1" ></line>
<text x="-66.64718022008628" y="-32.158255063223514" font-size="3" text-anchor="start" dominant-baseline="central" transform="rotate(205.75799999999998 -66.64718022008628,-32.158255063223514)" >FokI:4105</text>
<line x1 ="-54.160525835193575" y1="-25.81932302085649" x2="-60.47925384929949" y2="-28.831577373289747" stroke="black" stroke-width="0.1" ></line>
<line x1 ="-60.47925384929949" y1="-28.831577373289747" x2="-64.84590507900286" y2="-31.289113034487748" stroke="black" stroke-width="0.1" ></line>
<line x1 ="-64.84590507900286" y1="-31.289113034487748" x2="-66.64718022008628" y2="-32.158255063223514" stroke="black" stroke-width="0.1" ></line>
<text x="-64.49643369144611" y="-36.279609163893895" font-size="3" text-anchor="start" dominant-baseline="central" transform="rotate(209.35799999999995 -64.49643369144611,-36.279609163893895)" >XmnI:4126</text>
<line x1 ="-53.46039145130208" y1="-27.239429984372798" x2="-59.697437120620656" y2="-30.417363482549625" stroke="black" stroke-width="0.1" ></line>
<line x1 ="-59.697437120620656" y1="-30.417363482549625" x2="-62.753286834920544" y2="-35.299079186491355" stroke="black" stroke-width="0.1" ></line>
<line x1 ="-62.753286834920544" y1="-35.299079186491355" x2="-64.49643369144611" y2="-36.279609163893895" stroke="black" stroke-width="0.1" ></line>
<text x="-62.09114920464361" y="-40.25778422177115" font-size="3" text-anchor="start" dominant-baseline="central" transform="rotate(212.95799999999997 -62.09114920464361,-40.25778422177115)" >SapI:4207</text>
<line x1 ="-50.41583552843056" y1="-32.53065520351902" x2="-56.297683006747455" y2="-36.32589831059624" stroke="black" stroke-width="0.1" ></line>
<line x1 ="-56.297683006747455" y1="-36.32589831059624" x2="-60.41301003695053" y2="-39.16973599956112" stroke="black" stroke-width="0.1" ></line>
<line x1 ="-60.41301003695053" y1="-39.16973599956112" x2="-62.09114920464361" y2="-40.25778422177115" stroke="black" stroke-width="0.1" ></line>
<text x="-56.95866017632923" y="-47.240988885897025" font-size="3" text-anchor="start" dominant-baseline="central" transform="rotate(219.67199999999997 -56.95866017632923,-47.240988885897025)" >AvaI:4322</text>
<line x1 ="-45.20554172553764" y1="-39.45198343937444" x2="-50.47952159351703" y2="-44.054714840634794" stroke="black" stroke-width="0.1" ></line>
<line x1 ="-50.47952159351703" y1="-44.054714840634794" x2="-55.41923692832033" y2="-45.96420540249441" stroke="black" stroke-width="0.1" ></line>
<line x1 ="-55.41923692832033" y1="-45.96420540249441" x2="-56.95866017632923" y2="-47.240988885897025" stroke="black" stroke-width="0.1" ></line>
<text x="-53.879979036215566" y="-50.724233449673456" font-size="3" text-anchor="start" dominant-baseline="central" transform="rotate(223.272 -53.879979036215566,-50.724233449673456)" >OliI:4367</text>
<line x1 ="-42.90351464589019" y1="-41.943872389538456" x2="-47.90892468791071" y2="-46.83732416831794" stroke="black" stroke-width="0.1" ></line>
<line x1 ="-47.90892468791071" y1="-46.83732416831794" x2="-52.423763386588114" y2="-49.3533082213039" stroke="black" stroke-width="0.1" ></line>
<line x1 ="-52.423763386588114" y1="-49.3533082213039" x2="-53.879979036215566" y2="-50.724233449673456" stroke="black" stroke-width="0.1" ></line>
<text x="-50.58865823426687" y="-54.00729263772201" font-size="3" text-anchor="start" dominant-baseline="central" transform="rotate(226.872 -50.58865823426687,-54.00729263772201)" >MslI:4367</text>
<line x1 ="-42.90351464589019" y1="-41.943872389538456" x2="-47.90892468791071" y2="-46.83732416831794" stroke="black" stroke-width="0.1" ></line>
<line x1 ="-47.90892468791071" y1="-46.83732416831794" x2="-49.221397200908314" y2="-52.54763607994574" stroke="black" stroke-width="0.1" ></line>
<line x1 ="-49.221397200908314" y1="-52.54763607994574" x2="-50.58865823426687" y2="-54.00729263772201" stroke="black" stroke-width="0.1" ></line>
<text x="-34.50347124925446" y="-65.46381039743922" font-size="3" text-anchor="start" dominant-baseline="central" transform="rotate(242.20799999999997 -34.50347124925446,-65.46381039743922)" >BsmAI:4615</text>
<line x1 ="-27.97578749939551" y1="-53.07876518711288" x2="-31.239629374324988" y2="-59.27128779227604" stroke="black" stroke-width="0.1" ></line>
<line x1 ="-31.239629374324988" y1="-59.27128779227604" x2="-33.570944999274616" y2="-63.69451822453545" stroke="black" stroke-width="0.1" ></line>
<line x1 ="-33.570944999274616" y1="-63.69451822453545" x2="-34.50347124925446" y2="-65.46381039743922" stroke="black" stroke-width="0.1" ></line>
<text x="-7.704278361662554" y="-73.59785387445763" font-size="3" text-anchor="start" dominant-baseline="central" transform="rotate(264.024 -7.704278361662554,-73.59785387445763)" >MmeI:4918</text>
<line x1 ="-6.2467121851318" y1="-59.67393557388456" x2="-6.975495273397177" y2="-66.6358947241711" stroke="black" stroke-width="0.1" ></line>
<line x1 ="-6.975495273397177" y1="-66.6358947241711" x2="-7.4960546221581605" y2="-71.60872268866149" stroke="black" stroke-width="0.1" ></line>
<line x1 ="-7.4960546221581605" y1="-71.60872268866149" x2="-7.704278361662554" y2="-73.59785387445763" stroke="black" stroke-width="0.1" ></line>
<path d="M 1.821824026531447 -57.97138050121243 A 58 58 0 0 1 46.92298567374695 -34.09154463296344 L 50.159053651246744 -36.442685642133334 A 62 62 0 0 0 1.9474670628439605 -61.96940674267536 Z" fill="#ffffff" stroke="black" stroke-width="0.2" ></path>
<defs><path d="M 1.8846455446877037 -59.9703936219439 A 60 60 0 0 1 48.54101966249685 -35.26711513754839" id="ArcID0"></path></defs>
<text><textPath startOffset="50%" text-anchor="middle" alignment-baseline="middle" lengthAdjust="spacingAndGlyphs" font-size="4" textLength="14" href="#ArcID0" >region1</textPath ></text>
<path d="M 48.97101967911687 -31.077954108781807 A 58 58 0 0 1 55.16127794511891 -17.922985673746947 L 58.965504010299526 -19.159053651246737 A 62 62 0 0 0 52.348331381124936 -33.22126128869779 Z" fill="green" stroke="black" stroke-width="0.2" ></path>
<defs><path d="M 50.65967553012091 -32.1496076987398 A 60 60 0 0 1 57.06339097770922 -18.54101966249684" id="ArcID1"></path></defs>
<text><textPath startOffset="50%" text-anchor="middle" alignment-baseline="middle" lengthAdjust="spacingAndGlyphs" font-size="4" textLength="14" href="#ArcID1" >region2</textPath ></text>
<path d="M 57.88555024883975 -3.641850132700179 A 58 58 0 0 1 48.97101967911687 31.077954108781807 L 52.34833138112493 33.22126128869779 A 62 62 0 0 0 61.877657162552836 -3.8930122108174325 Z" fill="red" stroke="black" stroke-width="0.2" ></path>
<defs><path d="M 59.88160370569629 -3.7674311717588056 A 60 60 0 0 1 50.6596755301209 32.1496076987398" id="ArcID2"></path></defs>
<text><textPath startOffset="50%" text-anchor="middle" alignment-baseline="middle" lengthAdjust="spacingAndGlyphs" font-size="4" textLength="18" href="#ArcID2" >region3 1</textPath ></text>
<path d="M 61.877657162552836 3.8930122108174325 A 62 62 0 0 1 56.09927725289321 26.398316077034508 L 59.71858546275728 28.1014332432948 A 66 66 0 0 0 65.86976407626592 4.144174288934686 Z" fill="blue" stroke="black" stroke-width="0.2" ></path>
<defs><path d="M 63.87371061940938 4.0185932498760595 A 64 64 0 0 1 57.908931357825246 27.249874660164654" id="ArcID3"></path></defs>
<text><textPath startOffset="50%" text-anchor="middle" alignment-baseline="middle" lengthAdjust="spacingAndGlyphs" font-size="4" textLength="18" href="#ArcID3" >region3 2</textPath ></text>
<path d="M 53.04351153934918 10.118590987629137 A 54 54 0 0 1 31.740403623793544 43.686917696247164 L 34.09154463296343 46.92298567374695 A 58 58 0 0 0 56.97266054226394 10.868116245972036 Z" fill="white" stroke="black" stroke-width="0.2" ></path>
<defs><path d="M 55.00808604080656 10.493353616800587 A 56 56 0 0 1 32.91597412837849 45.30495168499706" id="ArcID4"></path></defs>
<text><textPath startOffset="50%" text-anchor="middle" alignment-baseline="middle" lengthAdjust="spacingAndGlyphs" font-size="4" textLength="18" href="#ArcID4" >region3 3</textPath ></text>
<path d="M 3.5514757175273244e-15 58 A 58 58 0 0 1 -34.09154463296343 46.92298567374695 L -36.44268564213333 50.159053651246744 A 62 62 0 0 0 3.796405077356795e-15 62 Z" fill="cyan" stroke="black" stroke-width="0.2" ></path>
<defs><path d="M 3.67394039744206e-15 60 A 60 60 0 0 1 -35.26711513754838 48.54101966249685" id="ArcID5"></path></defs>
<text><textPath startOffset="50%" text-anchor="middle" alignment-baseline="middle" lengthAdjust="spacingAndGlyphs" font-size="4" textLength="14" href="#ArcID5" >region4</textPath ></text>
<path d="M -57.88555024883975 3.6418501327001875 A 58 58 0 0 1 -34.09154463296345 -46.92298567374694 L -36.44268564213334 -50.15905365124674 A 62 62 0 0 0 -61.877657162552836 3.8930122108174423 Z" fill="#ffccbd" stroke="black" stroke-width="0.2" ></path>
<defs><path d="M -59.88160370569629 3.767431171758815 A 60 60 0 0 1 -35.267115137548394 -48.54101966249684" id="ArcID6"></path></defs>
<text><textPath startOffset="50%" text-anchor="middle" alignment-baseline="middle" lengthAdjust="spacingAndGlyphs" font-size="4" textLength="14" href="#ArcID6" >region5</textPath ></text>
<text x="110" y="-90" font-size="5" text-anchor="left" >Enzyme that do cut</text>
<text x="110" y="-85" font-size="4" text-anchor="left" >AccI</text>
<text x="140" y="-85" font-size="4" text-anchor="left" >AciI</text>
<text x="170" y="-85" font-size="4" text-anchor="left" >AcyI</text>
<text x="200" y="-85" font-size="4" text-anchor="left" >AflII</text>
<text x="230" y="-85" font-size="4" text-anchor="left" >AflIII</text>
<text x="260" y="-85" font-size="4" text-anchor="left" >AgeI</text>
<text x="110" y="-80" font-size="4" text-anchor="left" >AgsI</text>
<text x="140" y="-80" font-size="4" text-anchor="left" >AluI</text>
<text x="170" y="-80" font-size="4" text-anchor="left" >AoxI</text>
<text x="200" y="-80" font-size="4" text-anchor="left" >ApoI</text>
<text x="230" y="-80" font-size="4" text-anchor="left" >AsuII</text>
<text x="260" y="-80" font-size="4" text-anchor="left" >AvaI</text>
<text x="110" y="-75" font-size="4" text-anchor="left" >AvrII</text>
<text x="140" y="-75" font-size="4" text-anchor="left" >BamHI</text>
<text x="170" y="-75" font-size="4" text-anchor="left" >BbvI</text>
<text x="200" y="-75" font-size="4" text-anchor="left" >BccI</text>
<text x="230" y="-75" font-size="4" text-anchor="left" >BciVI</text>
<text x="260" y="-75" font-size="4" text-anchor="left" >BclI</text>
<text x="110" y="-70" font-size="4" text-anchor="left" >BplI</text>
<text x="140" y="-70" font-size="4" text-anchor="left" >BsaBI</text>
<text x="170" y="-70" font-size="4" text-anchor="left" >BsaXI</text>
<text x="200" y="-70" font-size="4" text-anchor="left" >BseMII</text>
<text x="230" y="-70" font-size="4" text-anchor="left" >BsePI</text>
<text x="260" y="-70" font-size="4" text-anchor="left" >BseSI</text>
<text x="110" y="-65" font-size="4" text-anchor="left" >BseYI</text>
<text x="140" y="-65" font-size="4" text-anchor="left" >BsgI</text>
<text x="170" y="-65" font-size="4" text-anchor="left" >BsmAI</text>
<text x="200" y="-65" font-size="4" text-anchor="left" >BspMI</text>
<text x="230" y="-65" font-size="4" text-anchor="left" >BsrI</text>
<text x="260" y="-65" font-size="4" text-anchor="left" >BsrBI</text>
<text x="110" y="-60" font-size="4" text-anchor="left" >BstEII</text>
<text x="140" y="-60" font-size="4" text-anchor="left" >BtgZI</text>
<text x="170" y="-60" font-size="4" text-anchor="left" >BtrI</text>
<text x="200" y="-60" font-size="4" text-anchor="left" >Cac8I</text>
<text x="230" y="-60" font-size="4" text-anchor="left" >Cfr10I</text>
<text x="260" y="-60" font-size="4" text-anchor="left" >CviJI</text>
<text x="110" y="-55" font-size="4" text-anchor="left" >DdeI</text>
<text x="140" y="-55" font-size="4" text-anchor="left" >DpnI</text>
<text x="170" y="-55" font-size="4" text-anchor="left" >EciI</text>
<text x="200" y="-55" font-size="4" text-anchor="left" >Eco31I</text>
<text x="230" y="-55" font-size="4" text-anchor="left" >Eco47III</text>
<text x="260" y="-55" font-size="4" text-anchor="left" >Eco57I</text>
<text x="110" y="-50" font-size="4" text-anchor="left" >EcoRI</text>
<text x="140" y="-50" font-size="4" text-anchor="left" >EcoRII</text>
<text x="170" y="-50" font-size="4" text-anchor="left" >EcoRV</text>
<text x="200" y="-50" font-size="4" text-anchor="left" >Esp3I</text>
<text x="230" y="-50" font-size="4" text-anchor="left" >FaiI</text>
<text x="260" y="-50" font-size="4" text-anchor="left" >FalI</text>
<text x="110" y="-45" font-size="4" text-anchor="left" >FauI</text>
<text x="140" y="-45" font-size="4" text-anchor="left" >BisI</text>
<text x="170" y="-45" font-size="4" text-anchor="left" >Fnu4HI</text>
<text x="200" y="-45" font-size="4" text-anchor="left" >FokI</text>
<text x="230" y="-45" font-size="4" text-anchor="left" >FspEI</text>
<text x="260" y="-45" font-size="4" text-anchor="left" >GlaI</text>
<text x="110" y="-40" font-size="4" text-anchor="left" >HaeII</text>
<text x="140" y="-40" font-size="4" text-anchor="left" >HaeIII</text>
<text x="170" y="-40" font-size="4" text-anchor="left" >HgaI</text>
<text x="200" y="-40" font-size="4" text-anchor="left" >HhaI</text>
<text x="230" y="-40" font-size="4" text-anchor="left" >HindII</text>
<text x="260" y="-40" font-size="4" text-anchor="left" >HindIII</text>
<text x="110" y="-35" font-size="4" text-anchor="left" >HpaI</text>
<text x="140" y="-35" font-size="4" text-anchor="left" >HpaII</text>
<text x="170" y="-35" font-size="4" text-anchor="left" >HphI</text>
<text x="200" y="-35" font-size="4" text-anchor="left" >Hpy99I</text>
<text x="230" y="-35" font-size="4" text-anchor="left" >Hpy188I</text>
<text x="260" y="-35" font-size="4" text-anchor="left" >LmnI</text>
<text x="110" y="-30" font-size="4" text-anchor="left" >LpnPI</text>
<text x="140" y="-30" font-size="4" text-anchor="left" >MaeI</text>
<text x="170" y="-30" font-size="4" text-anchor="left" >MaeII</text>
<text x="200" y="-30" font-size="4" text-anchor="left" >MaeIII</text>
<text x="230" y="-30" font-size="4" text-anchor="left" >MboI</text>
<text x="260" y="-30" font-size="4" text-anchor="left" >MboII</text>
<text x="110" y="-25" font-size="4" text-anchor="left" >MmeI</text>
<text x="140" y="-25" font-size="4" text-anchor="left" >MnlI</text>
<text x="170" y="-25" font-size="4" text-anchor="left" >MseI</text>
<text x="200" y="-25" font-size="4" text-anchor="left" >MslI</text>
<text x="230" y="-25" font-size="4" text-anchor="left" >MspJI</text>
<text x="260" y="-25" font-size="4" text-anchor="left" >MwoI</text>
<text x="110" y="-20" font-size="4" text-anchor="left" >NlaIII</text>
<text x="140" y="-20" font-size="4" text-anchor="left" >NlaIV</text>
<text x="170" y="-20" font-size="4" text-anchor="left" >NmeAIII</text>
<text x="200" y="-20" font-size="4" text-anchor="left" >NspI</text>
<text x="230" y="-20" font-size="4" text-anchor="left" >OliI</text>
<text x="260" y="-20" font-size="4" text-anchor="left" >PcsI</text>
<text x="110" y="-15" font-size="4" text-anchor="left" >PsiI</text>
<text x="140" y="-15" font-size="4" text-anchor="left" >PsrI</text>
<text x="170" y="-15" font-size="4" text-anchor="left" >PvuII</text>
<text x="200" y="-15" font-size="4" text-anchor="left" >RsaI</text>
<text x="230" y="-15" font-size="4" text-anchor="left" >SacII</text>
<text x="260" y="-15" font-size="4" text-anchor="left" >SapI</text>
<text x="110" y="-10" font-size="4" text-anchor="left" >ScrFI</text>
<text x="140" y="-10" font-size="4" text-anchor="left" >SduI</text>
<text x="170" y="-10" font-size="4" text-anchor="left" >SetI</text>
<text x="200" y="-10" font-size="4" text-anchor="left" >SfaNI</text>
<text x="230" y="-10" font-size="4" text-anchor="left" >SgeI</text>
<text x="260" y="-10" font-size="4" text-anchor="left" >SgrAI</text>
<text x="110" y="-5" font-size="4" text-anchor="left" >SmlI</text>
<text x="140" y="-5" font-size="4" text-anchor="left" >StuI</text>
<text x="170" y="-5" font-size="4" text-anchor="left" >StyI</text>
<text x="200" y="-5" font-size="4" text-anchor="left" >TaqI</text>
<text x="230" y="-5" font-size="4" text-anchor="left" >TaqII</text>
<text x="260" y="-5" font-size="4" text-anchor="left" >TauI</text>
<text x="110" y="0" font-size="4" text-anchor="left" >TseI</text>
<text x="140" y="0" font-size="4" text-anchor="left" >Tsp45I</text>
<text x="170" y="0" font-size="4" text-anchor="left" >TspDTI</text>
<text x="200" y="0" font-size="4" text-anchor="left" >TspGWI</text>
<text x="230" y="0" font-size="4" text-anchor="left" >XmnI</text>
<text x="110" y="10" font-size="5" text-anchor="left" >Enzyme that do NOT cut</text>
<text x="110" y="15" font-size="4" text-anchor="left" >AarI</text>
<text x="140" y="15" font-size="4" text-anchor="left" >AatII</text>
<text x="170" y="15" font-size="4" text-anchor="left" >AbsI</text>
<text x="200" y="15" font-size="4" text-anchor="left" >AclI</text>
<text x="230" y="15" font-size="4" text-anchor="left" >AjuI</text>
<text x="260" y="15" font-size="4" text-anchor="left" >AloI</text>
<text x="110" y="20" font-size="4" text-anchor="left" >AlwNI</text>
<text x="140" y="20" font-size="4" text-anchor="left" >ApaI</text>
<text x="170" y="20" font-size="4" text-anchor="left" >ApaLI</text>
<text x="200" y="20" font-size="4" text-anchor="left" >ArsI</text>
<text x="230" y="20" font-size="4" text-anchor="left" >AscI</text>
<text x="260" y="20" font-size="4" text-anchor="left" >AvaII</text>
<text x="110" y="25" font-size="4" text-anchor="left" >BaeI</text>
<text x="140" y="25" font-size="4" text-anchor="left" >BalI</text>
<text x="170" y="25" font-size="4" text-anchor="left" >BarI</text>
<text x="200" y="25" font-size="4" text-anchor="left" >BbvCI</text>
<text x="230" y="25" font-size="4" text-anchor="left" >BcgI</text>
<text x="260" y="25" font-size="4" text-anchor="left" >BglI</text>
<text x="110" y="30" font-size="4" text-anchor="left" >BglII</text>
<text x="140" y="30" font-size="4" text-anchor="left" >Bpu10I</text>
<text x="170" y="30" font-size="4" text-anchor="left" >BsaAI</text>
<text x="200" y="30" font-size="4" text-anchor="left" >BseRI</text>
<text x="230" y="30" font-size="4" text-anchor="left" >BsmI</text>
<text x="260" y="30" font-size="4" text-anchor="left" >Bsp1407I</text>
<text x="110" y="35" font-size="4" text-anchor="left" >BspHI</text>
<text x="140" y="35" font-size="4" text-anchor="left" >BsrDI</text>
<text x="170" y="35" font-size="4" text-anchor="left" >BstXI</text>
<text x="200" y="35" font-size="4" text-anchor="left" >BtsI</text>
<text x="230" y="35" font-size="4" text-anchor="left" >BtsIMutI</text>
<text x="260" y="35" font-size="4" text-anchor="left" >ClaI</text>
<text x="110" y="40" font-size="4" text-anchor="left" >CspCI</text>
<text x="140" y="40" font-size="4" text-anchor="left" >DraIII</text>
<text x="170" y="40" font-size="4" text-anchor="left" >DrdI</text>
<text x="200" y="40" font-size="4" text-anchor="left" >Eam1105I</text>
<text x="230" y="40" font-size="4" text-anchor="left" >EcoNI</text>
<text x="260" y="40" font-size="4" text-anchor="left" >FseI</text>
<text x="110" y="45" font-size="4" text-anchor="left" >FspAI</text>
<text x="140" y="45" font-size="4" text-anchor="left" >GsuI</text>
<text x="170" y="45" font-size="4" text-anchor="left" >HinfI</text>
<text x="200" y="45" font-size="4" text-anchor="left" >KpnI</text>
<text x="230" y="45" font-size="4" text-anchor="left" >KroI</text>
<text x="260" y="45" font-size="4" text-anchor="left" >MauBI</text>
<text x="110" y="50" font-size="4" text-anchor="left" >MfeI</text>
<text x="140" y="50" font-size="4" text-anchor="left" >MluI</text>
<text x="170" y="50" font-size="4" text-anchor="left" >MteI</text>
<text x="200" y="50" font-size="4" text-anchor="left" >NaeI</text>
<text x="230" y="50" font-size="4" text-anchor="left" >NarI</text>
<text x="260" y="50" font-size="4" text-anchor="left" >NcoI</text>
<text x="110" y="55" font-size="4" text-anchor="left" >NdeI</text>
<text x="140" y="55" font-size="4" text-anchor="left" >NheI</text>
<text x="170" y="55" font-size="4" text-anchor="left" >NotI</text>
<text x="200" y="55" font-size="4" text-anchor="left" >NruI</text>
<text x="230" y="55" font-size="4" text-anchor="left" >PacI</text>
<text x="260" y="55" font-size="4" text-anchor="left" >PasI</text>
<text x="110" y="60" font-size="4" text-anchor="left" >PflMI</text>
<text x="140" y="60" font-size="4" text-anchor="left" >PfoI</text>
<text x="170" y="60" font-size="4" text-anchor="left" >PleI</text>
<text x="200" y="60" font-size="4" text-anchor="left" >PmaCI</text>
<text x="230" y="60" font-size="4" text-anchor="left" >PmeI</text>
<text x="260" y="60" font-size="4" text-anchor="left" >PpuMI</text>
<text x="110" y="65" font-size="4" text-anchor="left" >PshAI</text>
<text x="140" y="65" font-size="4" text-anchor="left" >PspXI</text>
<text x="170" y="65" font-size="4" text-anchor="left" >PstI</text>
<text x="200" y="65" font-size="4" text-anchor="left" >PvuI</text>
<text x="230" y="65" font-size="4" text-anchor="left" >RsrII</text>
<text x="260" y="65" font-size="4" text-anchor="left" >SacI</text>
<text x="110" y="70" font-size="4" text-anchor="left" >SalI</text>
<text x="140" y="70" font-size="4" text-anchor="left" >ScaI</text>
<text x="170" y="70" font-size="4" text-anchor="left" >SexAI</text>
<text x="200" y="70" font-size="4" text-anchor="left" >SfiI</text>
<text x="230" y="70" font-size="4" text-anchor="left" >SgfI</text>
<text x="260" y="70" font-size="4" text-anchor="left" >SgrDI</text>
<text x="110" y="75" font-size="4" text-anchor="left" >SmaI</text>
<text x="140" y="75" font-size="4" text-anchor="left" >SnaBI</text>
<text x="170" y="75" font-size="4" text-anchor="left" >SpeI</text>
<text x="200" y="75" font-size="4" text-anchor="left" >SphI</text>
<text x="230" y="75" font-size="4" text-anchor="left" >SrfI</text>
<text x="260" y="75" font-size="4" text-anchor="left" >Sse8387I</text>
<text x="110" y="80" font-size="4" text-anchor="left" >SspI</text>
<text x="140" y="80" font-size="4" text-anchor="left" >SwaI</text>
<text x="170" y="80" font-size="4" text-anchor="left" >TatI</text>
<text x="200" y="80" font-size="4" text-anchor="left" >TfiI</text>
<text x="230" y="80" font-size="4" text-anchor="left" >TspRI</text>
<text x="260" y="80" font-size="4" text-anchor="left" >Tth111I</text>
<text x="110" y="85" font-size="4" text-anchor="left" >VspI</text>
<text x="140" y="85" font-size="4" text-anchor="left" >XbaI</text>
<text x="170" y="85" font-size="4" text-anchor="left" >XcmI</text>
<text x="200" y="85" font-size="4" text-anchor="left" >XhoI</text>
</svg>
